<?xml version="1.0" encoding="UTF-8" ?>
<!DOCTYPE svg PUBLIC "-//W3C//DTD SVG 1.1//EN" "http://www.w3.org/Graphics/SVG/1.1/DTD/svg11.dtd">
<svg width="1280pt" height="800pt" viewBox="0 0 1280 800" version="1.1" xmlns="http://www.w3.org/2000/svg">
<g id="#000000ff">
</g>
<g id="#000ff">
<path fill="#000" opacity="1.00" d=" M 109.33 243.33 C 124.89 243.33 140.44 243.34 156.00 243.33 C 156.00 258.66 156.00 274.00 156.00 289.33 C 140.44 289.33 124.89 289.33 109.34 289.33 C 109.33 274.00 109.33 258.67 109.33 243.33 Z" />
<path fill="#000" opacity="1.00" d=" M 164.00 243.33 C 179.33 243.33 194.67 243.33 210.00 243.33 C 210.00 258.66 210.00 274.00 210.00 289.33 C 194.67 289.33 179.33 289.33 164.00 289.33 C 164.00 274.00 164.00 258.67 164.00 243.33 Z" />
<path fill="#000" opacity="1.00" d=" M 218.00 243.33 C 233.33 243.33 248.67 243.33 264.00 243.33 C 264.00 258.66 264.00 274.00 264.00 289.33 C 248.67 289.33 233.33 289.33 218.00 289.33 C 218.00 274.00 218.00 258.67 218.00 243.33 Z" />
<path fill="#000" opacity="1.00" d=" M 109.33 297.33 C 124.89 297.33 140.44 297.34 156.00 297.33 C 156.00 312.66 156.00 328.00 156.00 343.33 C 140.44 343.33 124.89 343.33 109.33 343.33 C 109.33 328.00 109.33 312.67 109.33 297.33 Z" />
<path fill="#000" opacity="1.00" d=" M 218.00 297.33 C 233.33 297.34 248.67 297.33 264.00 297.33 C 264.00 312.66 264.00 328.00 264.00 343.33 C 248.67 343.33 233.33 343.33 218.00 343.33 C 218.00 328.00 218.00 312.66 218.00 297.33 Z" />
<path fill="#000" opacity="1.00" d=" M 326.00 297.33 C 341.33 297.33 356.67 297.33 372.00 297.33 C 372.00 312.67 372.00 328.00 372.00 343.33 C 356.67 343.33 341.33 343.33 326.00 343.33 C 326.00 328.00 326.00 312.67 326.00 297.33 Z" />
<path fill="#000" opacity="1.00" d=" M 656.65 306.01 C 656.68 303.55 656.37 301.01 657.35 298.68 C 665.74 299.69 674.23 298.93 682.67 299.18 C 682.66 316.23 682.67 333.28 682.67 350.33 C 699.78 350.33 716.89 350.34 734.00 350.33 C 734.00 357.78 734.00 365.22 734.00 372.67 C 716.89 372.66 699.78 372.67 682.67 372.67 C 682.67 399.12 682.65 425.57 682.68 452.02 C 682.74 456.28 682.54 460.57 683.13 464.81 C 683.57 471.78 683.87 479.01 686.68 485.51 C 689.36 491.23 696.03 493.43 701.90 493.83 C 713.01 494.44 724.07 492.72 735.17 492.41 C 735.32 499.62 735.93 506.80 736.33 514.00 C 719.29 516.89 701.58 519.65 684.49 515.67 C 675.29 513.58 666.58 507.76 662.97 498.78 C 657.44 485.63 656.82 471.07 656.67 457.00 C 656.66 428.89 656.67 400.78 656.66 372.66 C 648.89 372.67 641.11 372.66 633.33 372.67 C 633.33 365.22 633.33 357.78 633.33 350.33 C 641.11 350.33 648.89 350.33 656.66 350.34 C 656.66 335.56 656.68 320.78 656.65 306.01 Z" />
<path fill="#000" opacity="1.00" d=" M 965.17 372.24 C 983.33 360.44 1003.31 350.95 1024.63 346.59 C 1024.67 355.42 1024.72 364.26 1024.60 373.10 C 1003.81 377.00 983.89 384.73 965.20 394.54 C 965.19 401.68 964.44 408.82 965.15 415.96 C 964.47 423.63 965.48 431.30 965.16 439.00 C 964.62 446.38 965.29 453.75 965.12 461.15 C 964.25 470.76 965.61 480.37 965.10 490.00 C 965.02 497.96 965.15 505.91 965.18 513.88 C 956.34 514.14 947.50 513.93 938.67 514.00 C 938.67 459.44 938.67 404.89 938.67 350.34 C 947.51 350.39 956.36 350.21 965.20 350.43 C 965.13 357.70 965.18 364.97 965.17 372.24 Z" />
<path fill="#000" opacity="1.00" d=" M 783.02 358.06 C 797.31 348.41 815.18 346.37 832.02 346.72 C 848.05 347.31 865.03 350.69 877.47 361.53 C 889.50 372.02 894.68 388.00 897.08 403.32 C 898.52 412.14 898.81 421.09 898.87 430.01 C 898.81 449.42 897.62 469.51 889.51 487.45 C 884.31 499.20 873.86 508.09 861.79 512.21 C 844.92 517.99 826.58 518.37 809.05 515.92 C 794.27 513.71 779.02 507.31 770.56 494.39 C 761.07 479.85 758.63 462.07 757.47 445.10 C 756.79 425.88 756.68 406.19 762.51 387.65 C 766.08 376.02 772.72 364.90 783.02 358.06 M 795.28 380.23 C 788.25 388.07 786.25 398.90 784.82 408.99 C 783.13 424.32 783.46 439.82 784.87 455.16 C 786.43 464.99 787.90 475.59 794.48 483.51 C 802.49 492.60 815.40 494.94 826.97 494.82 C 838.32 495.08 850.81 493.48 859.54 485.54 C 867.81 477.74 869.43 465.82 871.13 455.15 C 872.55 439.59 872.90 423.87 871.10 408.32 C 869.55 397.83 867.31 386.37 859.27 378.78 C 850.35 370.71 837.64 369.20 826.10 369.39 C 815.13 369.61 803.10 371.87 795.28 380.23 Z" />
<path fill="#000" opacity="1.00" d=" M 1038.74 350.42 C 1047.52 350.24 1056.30 350.33 1065.09 350.38 C 1078.45 397.40 1091.82 444.41 1105.43 491.36 C 1109.05 491.32 1112.67 491.33 1116.31 491.34 C 1129.81 444.35 1143.20 397.33 1156.65 350.33 C 1165.41 350.35 1174.16 350.29 1182.92 350.37 C 1160.58 428.05 1138.10 505.69 1115.66 583.35 C 1106.99 583.31 1098.33 583.35 1089.67 583.33 C 1096.57 560.22 1103.44 537.11 1110.32 514.01 C 1101.90 513.90 1093.48 514.20 1085.07 513.83 C 1069.99 459.27 1054.06 404.92 1038.74 350.42 Z" />
<path fill="#000" opacity="1.00" d=" M 109.33 351.33 C 124.89 351.33 140.44 351.34 156.00 351.33 C 156.00 366.89 156.00 382.44 156.00 398.00 C 140.44 398.00 124.89 398.00 109.33 398.00 C 109.34 382.44 109.33 366.89 109.33 351.33 Z" />
<path fill="#000" opacity="1.00" d=" M 164.00 351.33 C 179.33 351.33 194.67 351.33 210.00 351.33 C 210.00 366.89 210.00 382.44 210.00 398.00 C 194.67 398.00 179.33 398.00 164.00 398.00 C 164.00 382.44 164.00 366.89 164.00 351.33 Z" />
<path fill="#000" opacity="1.00" d=" M 218.00 351.33 C 233.33 351.33 248.67 351.33 264.00 351.33 C 264.00 366.89 264.00 382.44 264.00 398.00 C 248.67 398.00 233.33 398.00 218.00 398.00 C 218.00 382.44 218.00 366.89 218.00 351.33 Z" />
<path fill="#000" opacity="1.00" d=" M 434.67 351.34 C 450.00 351.33 465.33 351.33 480.67 351.33 C 480.67 366.89 480.66 382.44 480.67 398.00 C 465.33 398.00 450.00 398.00 434.67 398.00 C 434.67 382.44 434.67 366.89 434.67 351.34 Z" />
<path fill="#000" opacity="1.00" d=" M 542.67 351.33 C 558.00 351.33 573.33 351.33 588.67 351.33 C 588.67 366.89 588.66 382.44 588.67 398.00 C 573.33 398.00 558.00 398.00 542.67 398.00 C 542.67 382.44 542.67 366.89 542.67 351.33 Z" />
<path fill="#000" opacity="1.00" d=" M 109.33 406.00 C 124.89 406.00 140.44 406.00 156.00 406.00 C 156.00 421.33 156.00 436.67 156.00 452.00 C 140.44 452.00 124.89 452.00 109.33 452.00 C 109.34 436.66 109.33 421.33 109.33 406.00 Z" />
<path fill="#000" opacity="1.00" d=" M 326.00 406.00 C 341.33 406.00 356.67 406.00 372.00 406.00 C 372.00 421.33 372.00 436.67 372.00 452.00 C 356.67 452.00 341.33 452.00 326.00 452.00 C 326.00 436.67 326.00 421.33 326.00 406.00 Z" />
<path fill="#000" opacity="1.00" d=" M 488.67 406.00 C 504.00 406.00 519.33 406.00 534.67 406.00 C 534.66 421.33 534.67 436.67 534.67 452.00 C 519.33 452.00 504.00 452.00 488.67 452.00 C 488.67 436.67 488.67 421.33 488.67 406.00 Z" />
<path fill="#000" opacity="1.00" d=" M 109.33 460.00 C 124.89 460.00 140.44 460.00 156.00 460.00 C 156.00 475.33 156.00 490.67 156.00 506.00 C 140.44 506.00 124.89 506.00 109.33 506.00 C 109.33 490.67 109.33 475.33 109.33 460.00 Z" />
<path fill="#000" opacity="1.00" d=" M 326.00 460.00 C 341.33 460.00 356.67 460.00 372.00 460.00 C 372.00 475.33 372.00 490.67 372.00 506.00 C 356.67 506.00 341.33 506.00 326.00 506.00 C 326.00 490.67 326.00 475.33 326.00 460.00 Z" />
<path fill="#000" opacity="1.00" d=" M 434.67 460.00 C 450.00 460.00 465.33 460.00 480.67 460.00 C 480.66 475.33 480.67 490.67 480.67 506.00 C 465.33 506.00 450.00 506.00 434.67 506.00 C 434.67 490.67 434.67 475.33 434.67 460.00 Z" />
<path fill="#000" opacity="1.00" d=" M 542.67 460.00 C 558.00 460.00 573.33 460.00 588.67 460.00 C 588.66 475.33 588.66 490.67 588.67 506.00 C 573.33 506.00 558.00 506.00 542.67 506.00 C 542.67 490.67 542.67 475.33 542.67 460.00 Z" />
</g>
</svg>
